# xmcd
#
# Track frame offsets:
#	150
#	17522
#	41547
#	60722
#
# Disc length: 1129 seconds
# Revision: 0
# Processed by: cddbd v1.5.2PL0 Copyright (c) Steve Scherf et al.
# Submitted via: dBpowerAMP V12.0
#
DISCID=28046704
DTITLE=Black Box feat. Martha Wash - Open Your Eyes
DYEAR=1991
DGENRE=House
TTITLE0=Open Your Eyes [Mirko's Mix Edit]
TTITLE1=Open Your Eyes [Mirko's Mix]
TTITLE2=Open Your Eyes [Daniele's Mix Edit]
TTITLE3=Open Your Eyes [Album Version]
EXTD=
EXTT0=
EXTT1=
EXTT2=
EXTT3=
PLAYORDER=
